<?xml version="1.0" encoding="UTF-8" standalone="no"?>
<!-- Created with Inkscape (http://www.inkscape.org/) -->

<svg
   width="36.60223mm"
   height="36.640213mm"
   viewBox="0 0 36.60223 36.640213"
   version="1.1"
   id="svg5"
   xml:space="preserve"
   inkscape:version="1.2.2 (b0a8486541, 2022-12-01, custom)"
   sodipodi:docname="regularExplosion06.svg"
   xmlns:inkscape="http://www.inkscape.org/namespaces/inkscape"
   xmlns:sodipodi="http://sodipodi.sourceforge.net/DTD/sodipodi-0.dtd"
   xmlns="http://www.w3.org/2000/svg"
   xmlns:svg="http://www.w3.org/2000/svg"><sodipodi:namedview
     id="namedview7"
     pagecolor="#ffffff"
     bordercolor="#999999"
     borderopacity="1"
     inkscape:showpageshadow="0"
     inkscape:pageopacity="0"
     inkscape:pagecheckerboard="0"
     inkscape:deskcolor="#d1d1d1"
     inkscape:document-units="mm"
     showgrid="false"
     inkscape:zoom="1.6819304"
     inkscape:cx="-75.508475"
     inkscape:cy="71.346591"
     inkscape:window-width="1600"
     inkscape:window-height="863"
     inkscape:window-x="0"
     inkscape:window-y="0"
     inkscape:window-maximized="1"
     inkscape:current-layer="layer1" /><defs
     id="defs2" /><g
     inkscape:label="Layer 1"
     inkscape:groupmode="layer"
     id="layer1"
     transform="translate(59.584896,25.783637)"
     style="display:inline"><path
       id="path5368"
       style="display:inline;fill:#000000;fill-opacity:0.0727163;stroke-width:0.709999;stroke-linecap:round;stroke-linejoin:round"
       d="m -43.512916,-14.140466 c -0.589877,0.22417 -1.121819,1.930207 -1.353948,3.030339 -3.388115,1.4280486 -2.465726,3.389388 -2.218851,4.1073231 -1.651379,1.1416456 -2.371886,5.0040164 2.317847,5.1366957 0.254463,0.5002172 3.194918,3.1012118 5.33343,0.1227317 2.586713,1.18356252 5.095648,-0.9182321 4.109797,-4.1229306 2.467455,-2.6741283 0.299718,-4.7227079 -0.69446,-5.1644029 0.177953,-1.93321 -1.372333,-4.751311 -3.828886,-3.354758 -0.894597,0.15158 -2.786815,-0.465137 -3.648221,0.242743 -3.230913,-2.341427 -7.703277,-1.575014 -7.765207,-3.487818 1.507098,-7.206137 7.414441,-8.539289 11.458388,-7.668963 6.190494,-1.674007 12.494654,0.932522 13.001695,8.767231 6.557056,5.109881 2.923273,11.3447751 1.798433,12.9116781 1.743205,7.0943693 -2.718749,12.2335079 -10.800048,11.639642 -5.763448,5.3782349 -11.748748,1.9204355 -14.288085,-0.6514911 -11.910593,-1.131789 -10.520771,-12.1823843 -7.030572,-15.0985993 -1.045865,-3.0622117 1.571063,-8.4657707 5.721964,-9.8266547 2.94405,0 7.886724,0.399452 7.886724,3.417234 z"
       sodipodi:nodetypes="cccccccccccccccccc" /><path
       id="path6623"
       style="display:inline;fill:#ff6600;fill-opacity:0.200364;stroke-width:0.709999;stroke-linecap:round;stroke-linejoin:round"
       d="m -45.336596,-14.43548 c -3.759005,0.06528 -5.153404,4.6404085 -4.816976,4.8494545 -2.958357,0.7270962 -4.931494,8.59230546 1.599812,10.6453105 -0.385218,1.1416073 3.995847,5.6837139 8.491457,2.7949905 2.538571,1.6196526 8.873768,0.617811 8.588329,-5.7339613 3.227855,-1.2082913 2.719012,-5.7654523 0.996708,-8.2458162 0.526641,-1.986012 -0.06466,-7.473128 -6.255785,-7.213794 -3.892826,-1.8114 -7.816407,0.07635 -8.499711,2.88196 -2.492144,0.343363 -1.317992,-1.878554 -1.127088,-2.161629 2.066257,-5.429964 6.876707,-5.179404 10.646727,-3.504089 4.914652,-1.171585 9.748157,4.952699 8.14571,9.09083 3.929945,5.2588966 -0.03174,9.9968425 -1.247405,10.2591375 0.265384,8.3838953 -8.688899,9.1239145 -10.855029,7.3560499 -5.418028,3.2352288 -9.913186,0.125065 -10.990365,-3.1796456 -7.837634,-1.8288217 -6.603072,-12.8706507 -2.604842,-13.3663275 0.04492,-2.1283063 2.049522,-6.5167423 6.878356,-6.6637023 1.053182,0 1.050102,1.560463 1.050102,2.191232 z"
       sodipodi:nodetypes="ccccccccccccccccc" /></g></svg>
