<?xml version="1.0" encoding="UTF-8" standalone="no"?>
<!-- Created with Inkscape (http://www.inkscape.org/) -->

<svg
   width="39.574467mm"
   height="39.574467mm"
   viewBox="0 0 39.574467 39.574467"
   version="1.1"
   id="svg3766"
   xml:space="preserve"
   inkscape:version="1.2.1 (0f2f062aeb, 2022-09-21, custom)"
   sodipodi:docname="regularExplosion01.svg"
   xmlns:inkscape="http://www.inkscape.org/namespaces/inkscape"
   xmlns:sodipodi="http://sodipodi.sourceforge.net/DTD/sodipodi-0.dtd"
   xmlns:xlink="http://www.w3.org/1999/xlink"
   xmlns="http://www.w3.org/2000/svg"
   xmlns:svg="http://www.w3.org/2000/svg"><sodipodi:namedview
     id="namedview3768"
     pagecolor="#bdbdbd"
     bordercolor="#999999"
     borderopacity="1"
     inkscape:showpageshadow="false"
     inkscape:pageopacity="1"
     inkscape:pagecheckerboard="true"
     inkscape:deskcolor="#2a2a2a"
     inkscape:document-units="mm"
     showgrid="false"
     borderlayer="true"
     showborder="true"
     inkscape:zoom="3.1143649"
     inkscape:cx="2.7292884"
     inkscape:cy="96.648918"
     inkscape:window-width="1600"
     inkscape:window-height="863"
     inkscape:window-x="0"
     inkscape:window-y="0"
     inkscape:window-maximized="1"
     inkscape:current-layer="layer1" /><defs
     id="defs3763"><linearGradient
       inkscape:collect="always"
       id="linearGradient6619"><stop
         style="stop-color:#ffffff;stop-opacity:0.25;"
         offset="0.89175606"
         id="stop6615" /><stop
         style="stop-color:#ffffff;stop-opacity:0;"
         offset="1"
         id="stop6617" /></linearGradient><radialGradient
       inkscape:collect="always"
       xlink:href="#linearGradient6619"
       id="radialGradient6621"
       cx="-55.795544"
       cy="27.856703"
       fx="-55.795544"
       fy="27.856703"
       r="19.787233"
       gradientUnits="userSpaceOnUse" /></defs><g
     inkscape:label="Layer 1"
     inkscape:groupmode="layer"
     id="layer1"
     style="fill:#ffffff"
     transform="translate(74.309424,-8.6238903)"><g
       id="g6627"
       style="display:inline"
       transform="translate(1.2733528,0.55442083)"><circle
         style="display:inline;fill:url(#radialGradient6621);fill-opacity:1;stroke:none;stroke-width:6.5189;stroke-linecap:round;stroke-linejoin:round;stroke-dasharray:none;stroke-opacity:0.498086;paint-order:normal"
         id="path6613"
         cx="-55.795544"
         cy="27.856703"
         r="19.787233" /><path
         id="path5867"
         style="display:inline;fill:#f0721e;fill-opacity:1;stroke:none;stroke-width:6.85847;stroke-linecap:round;stroke-linejoin:round;stroke-dasharray:none;stroke-opacity:0.498086;paint-order:normal"
         d="m -56.010006,13.510668 c -2.414773,0.0012 -4.607717,1.216978 -5.615161,3.112988 -0.0059,-1.5e-5 -0.01171,-1.5e-5 -0.01757,0 -1.442927,-1.44e-4 -2.720479,0.876381 -3.504015,2.222778 -0.182949,0.314372 -5.962474,-3.064612 -6.087374,-2.704185 -0.09332,0.269296 5.45424,4.268974 5.397406,4.558929 -0.07945,0.405316 -0.12154,0.828706 -0.121516,1.264271 8.42e-4,0.989183 0.223574,1.958646 0.643372,2.800346 -0.817426,1.202914 -1.256798,2.639448 -1.257804,4.11241 5.37e-4,1.787653 0.646379,3.50996 1.809708,4.826062 -0.03038,0.235317 -0.04642,0.472023 -0.04806,0.709001 9.5e-5,3.497595 3.071637,6.332918 6.860563,6.332947 1.304358,-0.0015 2.581224,-0.346219 3.680913,-0.993738 0.480016,0.09727 0.969964,0.146645 1.461409,0.147278 3.538847,-0.0017 6.495677,-2.487819 6.826974,-5.740218 2.482297,-0.886091 4.14619,-3.283158 4.148067,-5.975863 -2.66e-4,-2.039686 -0.959544,-3.954396 -2.577104,-5.143872 0.02131,-0.200001 0.03269,-0.400921 0.03411,-0.602031 -3e-6,-3.38771 -2.768032,-6.13399 -6.182569,-6.133992 -0.0059,1.64e-4 -0.01171,3.36e-4 -0.01757,5.17e-4 -1.081395,-1.721506 -3.166651,-2.793583 -5.433777,-2.793628 z"
         sodipodi:nodetypes="cccsssccccccccccccccc" /><path
         id="path4379"
         style="display:inline;fill:#ffcc00;fill-opacity:1;stroke:none;stroke-width:19.1446;stroke-linecap:round;stroke-linejoin:round;stroke-dasharray:none;stroke-opacity:0.498086;paint-order:normal"
         d="m -56.391923,16.569901 c -1.641793,0.0014 -3.126304,1.051451 -3.779098,2.673222 -2.136991,0.06891 -3.870357,1.8853 -3.992004,4.183207 -1.281664,0.904472 -2.050166,2.416685 -2.050521,4.034896 0.0013,1.792083 0.943105,3.438452 2.45153,4.285527 0.177641,2.313569 1.890908,4.173935 4.092773,4.444173 0.632196,1.045637 1.478363,1.679936 2.67219,1.973578 0.374062,0.09201 -0.192756,7.669897 0.203533,7.669933 0.267596,-8.9e-5 1.682533,-7.446163 1.941553,-7.488939 1.24078,-0.204912 2.354665,-0.885075 3.068548,-1.901358 0.488926,0.141232 0.999395,0.213409 1.513086,0.213941 2.734546,1.93e-4 4.951488,-1.986542 4.951636,-4.437456 -4.2e-5,-0.87201 -0.286723,-1.724684 -0.82424,-2.451529 1.025103,-0.879345 1.609195,-2.122159 1.609721,-3.425114 -1.25e-4,-1.668666 -0.954737,-3.208988 -2.500622,-4.034896 0.05801,-0.270646 0.08777,-0.545546 0.08888,-0.821139 -3e-5,-0.49256 -0.08959,-0.966373 -0.254901,-1.40908 -0.12931,-0.346306 6.269137,-7.649376 6.053733,-7.951696 -0.238354,-0.334528 -7.099479,6.337294 -7.42622,6.071885 -0.878646,-0.713717 -2.044535,-1.148534 -3.323731,-1.148564 -0.702458,7.98e-4 -1.396687,0.135557 -2.036568,0.395325 -0.711034,-0.568885 -1.573389,-0.876028 -2.459281,-0.875916 z"
         sodipodi:nodetypes="ccccccscscccccccsssccc"
         inkscape:label="path4379" /><path
         id="path3853"
         style="display:inline;fill:#ffffff;fill-opacity:0.990336;stroke-width:13.6927;stroke-linecap:round;stroke-linejoin:round;stroke-opacity:0.498086"
         d="m -49.747004,27.930845 c 0,0.499625 -0.07209,0.982413 -0.206435,1.438529 -0.11072,0.375905 8.510778,5.676795 8.320994,6.010964 -0.209495,0.368874 -9.238309,-4.234135 -9.530031,-3.930229 -0.924958,0.963588 -2.226024,1.56339 -3.667181,1.56339 -1.995635,0 -3.722643,-1.150132 -4.554334,-2.823707 -0.164831,-0.33168 -11.577859,2.276191 -11.667478,1.908269 -0.09425,-0.386917 11.139158,-3.751288 11.139158,-4.167216 0,-0.0797 0.0018,-0.158964 0.0055,-0.237764 0.104585,-2.27118 1.699776,-4.15331 3.829905,-4.690721 0.39908,-0.100684 0.01018,-11.148667 0.440527,-11.148667 0.363707,0 1.525251,11.032701 1.86732,11.105312 2.297995,0.487796 4.022092,2.528476 4.022092,4.97184 z"
         sodipodi:nodetypes="sssssssssssss"
         inkscape:label="path3853" /></g></g></svg>
