<?xml version="1.0" encoding="UTF-8" standalone="no"?>
<!-- Created with Inkscape (http://www.inkscape.org/) -->

<svg
   width="39.080246mm"
   height="39.600323mm"
   viewBox="0 0 39.080246 39.600323"
   version="1.1"
   id="svg5"
   xml:space="preserve"
   inkscape:version="1.2.2 (b0a8486541, 2022-12-01, custom)"
   sodipodi:docname="regularExplosion08.svg"
   xmlns:inkscape="http://www.inkscape.org/namespaces/inkscape"
   xmlns:sodipodi="http://sodipodi.sourceforge.net/DTD/sodipodi-0.dtd"
   xmlns="http://www.w3.org/2000/svg"
   xmlns:svg="http://www.w3.org/2000/svg"><sodipodi:namedview
     id="namedview7"
     pagecolor="#ffffff"
     bordercolor="#999999"
     borderopacity="1"
     inkscape:showpageshadow="0"
     inkscape:pageopacity="0"
     inkscape:pagecheckerboard="0"
     inkscape:deskcolor="#d1d1d1"
     inkscape:document-units="mm"
     showgrid="false"
     inkscape:zoom="3.3638608"
     inkscape:cx="32.700521"
     inkscape:cy="63.617377"
     inkscape:window-width="1600"
     inkscape:window-height="863"
     inkscape:window-x="0"
     inkscape:window-y="0"
     inkscape:window-maximized="1"
     inkscape:current-layer="layer1" /><defs
     id="defs2" /><g
     inkscape:label="Layer 1"
     inkscape:groupmode="layer"
     id="layer1"
     transform="translate(110.62299,50.459708)"
     style="display:inline"><path
       id="path5368"
       style="display:inline;fill:#000000;fill-opacity:0.03;stroke-width:0.709999;stroke-linecap:round;stroke-linejoin:round"
       d="m -96.923443,-42.738912 c -1.02697,1.300503 -0.945678,3.648492 -1.715728,4.297109 -5.589059,2.872205 -5.281629,5.869248 -5.129229,8.336853 -5.2364,8.140667 -1.04174,11.07172 5.152639,11.212154 2.536519,2.438226 6.078435,6.89461 11.787877,0.640439 11.106884,1.112073 9.607025,-4.809507 8.759327,-9.37359 5.331891,-8.073553 -1.059606,-8.241447 -1.389217,-11.405542 -1.301109,-1.85061 0.110994,-8.788518 -9.125248,-6.06627 -3.726118,-0.771513 -7.133171,-0.549344 -8.330931,2.398834 -5.524407,3.03314 -4.793757,3.023045 -4.835397,1.062707 1.50767,-7.219618 7.654479,-9.744079 11.652179,-7.785793 5.72242,-2.371425 13.524292,-1.21713 14.781102,9.176788 6.503029,4.679027 2.864666,12.239108 1.754958,13.785789 2.135157,7.190973 -2.916545,13.577303 -11.921184,12.755863 -5.76345,5.3782343 -12.142019,1.940406 -14.681355,-0.631521 -12.68724,-1.544769 -11.7392,-13.774087 -8.00224,-16.559087 -1.41979,-3.375781 1.88919,-9.727521 6.43255,-10.759296 2.944051,0 4.809897,-4.103219 4.809897,-1.085437 z"
       sodipodi:nodetypes="cccccccccccccccccc" /></g></svg>
