<?xml version="1.0" encoding="UTF-8" standalone="no"?>
<!-- Created with Inkscape (http://www.inkscape.org/) -->

<svg
   width="37.592754mm"
   height="38.142155mm"
   viewBox="0 0 37.592754 38.142155"
   version="1.1"
   id="svg5"
   xml:space="preserve"
   inkscape:version="1.2.2 (b0a8486541, 2022-12-01, custom)"
   sodipodi:docname="regularExplosion07.svg"
   xmlns:inkscape="http://www.inkscape.org/namespaces/inkscape"
   xmlns:sodipodi="http://sodipodi.sourceforge.net/DTD/sodipodi-0.dtd"
   xmlns="http://www.w3.org/2000/svg"
   xmlns:svg="http://www.w3.org/2000/svg"><sodipodi:namedview
     id="namedview7"
     pagecolor="#ffffff"
     bordercolor="#999999"
     borderopacity="1"
     inkscape:showpageshadow="0"
     inkscape:pageopacity="0"
     inkscape:pagecheckerboard="0"
     inkscape:deskcolor="#d1d1d1"
     inkscape:document-units="mm"
     showgrid="false"
     inkscape:zoom="3.3638608"
     inkscape:cx="38.64607"
     inkscape:cy="100.77706"
     inkscape:window-width="1600"
     inkscape:window-height="863"
     inkscape:window-x="0"
     inkscape:window-y="0"
     inkscape:window-maximized="1"
     inkscape:current-layer="layer1" /><defs
     id="defs2" /><g
     inkscape:label="Layer 1"
     inkscape:groupmode="layer"
     id="layer1"
     transform="translate(66.965127,51.081475)"
     style="display:inline"><path
       id="path5368"
       style="display:inline;fill:#000000;fill-opacity:0.05;stroke-width:0.709999;stroke-linecap:round;stroke-linejoin:round"
       d="m -52.272385,-40.93355 c -1.02697,1.300503 -0.48819,2.685126 -1.25824,3.333743 -4.07983,1.005444 -4.19437,5.436948 -3.84479,6.217633 -3.14973,3.507387 -1.55556,8.719211 3.84531,7.729073 0.25446,0.500218 4.99899,5.642577 8.43384,0.465771 6.8303,0.612514 6.57594,-2.546824 6.3006,-6.655703 3.38452,-5.609415 -0.16508,-5.921462 -1.17307,-8.391317 -0.15405,-2.318562 -1.0346,-5.916233 -6.61091,-4.414983 -3.08366,-0.281819 -3.77161,-0.648274 -5.68325,1.75577 -3.23092,-2.341427 -6.14171,0.511485 -6.20364,-1.401319 1.50767,-7.219618 7.46069,-9.627249 11.45839,-7.668963 5.72242,-2.371425 12.343397,-1.626687 13.600207,8.767231 7.122519,3.848953 2.880319,11.575841 1.755419,13.142879 2.135157,7.190973 -1.985287,13.034094 -10.989926,12.212654 -5.76345,5.378235 -11.67347,2.109852 -14.21281,-0.462075 -12.68724,-1.544769 -11.20843,-13.307229 -7.47147,-16.092229 -1.41979,-3.375781 1.17861,-8.794879 5.72197,-9.826654 2.94405,0 6.33237,-1.729293 6.33237,1.288489 z"
       sodipodi:nodetypes="cccccccccccccccccc" /></g></svg>
