<?xml version="1.0" encoding="UTF-8" standalone="no"?>
<!-- Created with Inkscape (http://www.inkscape.org/) -->

<svg
   width="31.3216mm"
   height="32.542202mm"
   viewBox="0 0 31.3216 32.542202"
   version="1.1"
   id="svg5"
   xml:space="preserve"
   inkscape:version="1.2.2 (b0a8486541, 2022-12-01, custom)"
   sodipodi:docname="regularExplosion04.svg"
   xmlns:inkscape="http://www.inkscape.org/namespaces/inkscape"
   xmlns:sodipodi="http://sodipodi.sourceforge.net/DTD/sodipodi-0.dtd"
   xmlns="http://www.w3.org/2000/svg"
   xmlns:svg="http://www.w3.org/2000/svg"><sodipodi:namedview
     id="namedview7"
     pagecolor="#ffffff"
     bordercolor="#999999"
     borderopacity="1"
     inkscape:showpageshadow="0"
     inkscape:pageopacity="0"
     inkscape:pagecheckerboard="0"
     inkscape:deskcolor="#d1d1d1"
     inkscape:document-units="mm"
     showgrid="false"
     inkscape:zoom="2.3786088"
     inkscape:cx="53.602762"
     inkscape:cy="105.94428"
     inkscape:window-width="1600"
     inkscape:window-height="863"
     inkscape:window-x="0"
     inkscape:window-y="0"
     inkscape:window-maximized="1"
     inkscape:current-layer="layer1" /><defs
     id="defs2" /><g
     inkscape:label="Layer 1"
     inkscape:groupmode="layer"
     id="layer1"
     transform="translate(22.590665,-2.1943868)"
     style="display:inline"><path
       id="path401"
       style="display:inline;fill:#000000;fill-opacity:0.392684;stroke-width:0.844303;stroke-linecap:round;stroke-linejoin:round"
       d="m -2.6130761,2.1943868 a 7.6396961,8.4951115 0 0 0 -3.4369995,0.9131225 8.291461,6.7822742 0 0 0 -1.8453654,-0.1700154 8.291461,6.7822742 0 0 0 -8.291484,6.7820149 8.291461,6.7822742 0 0 0 0.03721,0.6046142 8.291461,7.6472745 0 0 0 -4.876704,6.963399 8.291461,7.6472745 0 0 0 0.265616,1.899626 8.3261127,8.0518026 0 0 0 -1.829862,5.034835 8.3261127,8.0518026 0 0 0 8.326107,8.052221 8.3261127,8.0518026 0 0 0 0.879016,-0.05064 7.2184391,6.0335054 0 0 0 5.8580402,2.513024 7.2184391,6.0335054 0 0 0 6.0001505,-2.684073 A 7.5338288,9.913268 85.616263 0 0 0.63943854,31.797748 7.5338288,9.913268 85.616263 0 0 8.1221859,22.539915 7.5338288,9.913268 85.616263 0 0 7.3630591,20.92451 8.291461,8.1440277 0 0 0 8.7309343,16.450364 8.291461,8.1440277 0 0 0 4.966823,9.6275248 7.6396961,8.4951115 0 0 0 -2.6130761,2.1943868 Z" /><path
       id="path3909"
       style="display:inline;fill:#f0721e;fill-opacity:1;stroke-width:0.597342;stroke-linecap:round;stroke-linejoin:round"
       d="m -8.8368663,0.38197737 a 4.7481486,3.1324309 20.655975 0 0 -1.7183377,-0.99398297 4.7481486,3.1324309 20.655975 0 0 -5.154146,0.40513626 4.5945835,3.2371264 0 0 0 -3.581099,-1.21195796 4.5945835,3.2371264 0 0 0 -4.449067,2.4362401 3.2595209,5.2367542 19.491908 0 0 -4.104152,1.0619609 3.2595209,5.2367542 19.491908 0 0 -1.381386,7.1471753 3.2595209,5.2367542 19.491908 0 0 1.165559,1.217227 5.3212417,2.7950707 57.372612 0 0 1.708221,6.027988 5.3212417,2.7950707 57.372612 0 0 4.704762,2.134167 5.4050149,3.1438297 11.810364 0 0 5.522335,3.765233 5.4050149,3.1438297 11.810364 0 0 5.125028,-2.604801 3.3700738,4.5665466 47.259418 0 0 3.6249073,-1.06491 3.3700738,4.5665466 47.259418 0 0 1.8818292,-5.436779 A 5.4838483,3.1956586 76.505757 0 0 -3.3406817,8.1298905 5.4838483,3.1956586 76.505757 0 0 -7.31346,2.5260995 4.7481486,3.1324309 20.655975 0 0 -8.8368663,0.38197737 Z M -9.9268926,5.6051543 a 5.4838483,3.1956586 76.505757 0 0 0.012195,2.0727975 5.4838483,3.1956586 76.505757 0 0 1.7190979,4.2103132 3.3700738,4.5665466 47.259418 0 0 -2.8557413,1.109181 3.3700738,4.5665466 47.259418 0 0 -2.218298,3.966745 5.4050149,3.1438297 11.810364 0 0 -3.256718,-1.019689 5.4050149,3.1438297 11.810364 0 0 -4.33912,0.928624 5.3212417,2.7950707 57.372612 0 0 -1.92222,-5.023807 5.3212417,2.7950707 57.372612 0 0 -2.368069,-2.0408102 3.2595209,5.2367542 19.491908 0 0 0.735369,-0.7265564 3.2595209,5.2367542 19.491908 0 0 1.821233,-5.0202749 4.5945835,3.2371264 0 0 0 3.308436,0.9936607 4.5945835,3.2371264 0 0 0 3.887035,-1.5116521 4.7481486,3.1324309 20.655975 0 0 2.359148,1.597811 4.7481486,3.1324309 20.655975 0 0 3.1176524,0.4636572 z"
       transform="matrix(0.74791973,-0.66378918,0.59269161,0.80542949,0,0)" /><path
       id="path4779"
       style="display:inline;fill:#f09d1e;fill-opacity:1;stroke-width:0.709999;stroke-linecap:round;stroke-linejoin:round"
       d="m -11.092505,16.356342 c 0.53167,1.165046 -1.283862,4.087282 -2.115832,4.333917 0.241825,0.04937 0.132092,0.250626 0.425738,0.381856 4.4760074,2.000328 3.8195385,2.758349 4.5267317,3.032199 1.827638,-0.968165 2.4990739,-0.883006 5.2575856,-0.722274 0.2601255,-1.697951 -0.2246019,-2.158112 1.8081482,-4.924554 -0.748622,-0.882557 -1.9605557,-2.362107 -1.148577,-4.765552 -1.5504749,0.169112 -4.2871313,0.0613 -4.6012412,-0.764673 -0.8137563,2.378462 -1.1628776,2.813912 -4.1127113,3.481734 -0.584561,0.132341 -2.768802,-2.02538 0.04355,-4.0167 -0.660126,-1.33723 2.7850543,-4.5575974 7.5077521,-2.8338552 3.21488006,-1.2323293 6.528373,4.0866512 5.18028,5.4402952 0.7087184,0.38374 2.7271717,4.787519 -0.4066403,7.169982 0.4138389,4.665547 -4.0010016,6.449808 -6.825083,5.084283 -2.375045,1.930627 -6.4362168,1.024671 -7.2257918,-1.979274 -2.101562,0.747046 -7.048374,-4.25378 -2.20041,-8.782285 -0.608127,-1.780429 2.472592,-4.490037 3.972137,-4.029669 1.0111204,0 -0.08563,2.687335 -0.08563,3.89457 z"
       sodipodi:nodetypes="ccscccccsccccccccc" /></g></svg>
