<?xml version="1.0" encoding="UTF-8" standalone="no"?>
<!-- Created with Inkscape (http://www.inkscape.org/) -->

<svg
   width="24.076567mm"
   height="27.055714mm"
   viewBox="0 0 24.076567 27.055714"
   version="1.1"
   id="svg5"
   xml:space="preserve"
   inkscape:version="1.2.1 (0f2f062aeb, 2022-09-21, custom)"
   sodipodi:docname="regularExplosion03.svg"
   xmlns:inkscape="http://www.inkscape.org/namespaces/inkscape"
   xmlns:sodipodi="http://sodipodi.sourceforge.net/DTD/sodipodi-0.dtd"
   xmlns="http://www.w3.org/2000/svg"
   xmlns:svg="http://www.w3.org/2000/svg"><sodipodi:namedview
     id="namedview7"
     pagecolor="#ffffff"
     bordercolor="#999999"
     borderopacity="1"
     inkscape:showpageshadow="0"
     inkscape:pageopacity="0"
     inkscape:pagecheckerboard="0"
     inkscape:deskcolor="#d1d1d1"
     inkscape:document-units="mm"
     showgrid="false"
     inkscape:zoom="6.7277216"
     inkscape:cx="47.341435"
     inkscape:cy="58.56366"
     inkscape:window-width="1920"
     inkscape:window-height="1043"
     inkscape:window-x="0"
     inkscape:window-y="0"
     inkscape:window-maximized="1"
     inkscape:current-layer="layer1" /><defs
     id="defs2" /><g
     inkscape:label="Layer 1"
     inkscape:groupmode="layer"
     id="layer1"
     transform="translate(18.321678,-2.8920186)"><path
       id="path426"
       style="display:inline;fill:#333333;fill-opacity:0.7;stroke-width:7.09439;stroke-linecap:round;stroke-linejoin:round"
       d="m -9.0736631,2.8920186 a 6.3309321,6.2214761 0 0 0 -5.7856939,3.7067505 5.1506515,6.2214761 0 0 0 -3.462321,5.8740599 5.1506515,6.2214761 0 0 0 0.993738,3.670061 5.1506515,6.2214761 0 0 0 -0.480591,2.622579 5.1506515,6.2214761 0 0 0 2.191081,5.086511 6.347754,6.2214761 0 0 0 6.3427649,6.095752 6.347754,6.2214761 0 0 0 4.816244,-2.175578 5.6740427,6.2214761 0 0 0 1.306897,0.168982 5.6740427,6.2214761 0 0 0 5.674072,-6.221325 5.6740427,6.2214761 0 0 0 0,-0.01447 5.3880749,6.0696969 0 0 0 3.232361,-5.558317 5.3880749,6.0696969 0 0 0 -3.102653,-5.495789 6.6022296,6.4311705 0 0 0 -6.571175,-5.8120484 6.6022296,6.4311705 0 0 0 -0.533301,0.022221 6.3309321,6.2214761 0 0 0 -4.621423,-1.969389 z" /><path
       id="path1142"
       style="display:inline;fill:#f0721e;fill-opacity:1;stroke-width:6.49999;stroke-linecap:round;stroke-linejoin:round"
       d="m -7.3158325,5.6415161 a 4.9523244,5.3480558 0 0 0 -3.9553145,2.135787 5.8101521,5.3480558 0 0 0 -3.706233,4.9847089 5.8101521,5.3480558 0 0 0 0.461987,2.081526 5.8101521,5.3480558 0 0 0 -1.203027,3.254065 5.8101521,5.3480558 0 0 0 1.575614,3.659725 5.8101521,5.3480558 0 0 0 -0.0047,0.112138 5.8101521,5.3480558 0 0 0 5.8104982,5.347994 5.8101521,5.3480558 0 0 0 3.5594726,-1.123962 5.8101521,5.3480558 0 0 0 0.026355,0.001 5.8101521,5.3480558 0 0 0 5.74900311,-4.581632 5.8101521,5.5284085 0 0 0 2.42775879,-4.490682 5.8101521,5.5284085 0 0 0 -1.8040243,-4.00389 5.8101521,5.3480558 0 0 0 0.00258,-0.06511 5.8101521,5.3480558 0 0 0 -5.0725586,-5.3045863 4.9523244,5.3480558 0 0 0 -3.8674642,-2.0071126 z" /><path
       id="path4260"
       style="display:inline;fill:#ffcc00;fill-opacity:1;stroke-width:6.49999;stroke-linecap:round;stroke-linejoin:round"
       d="m -7.2016276,8.0315511 a 3.8987057,3.747618 0 0 0 -3.4065104,1.9280477 3.2793002,3.747618 0 0 0 -2.5585,3.6555912 3.2793002,3.747618 0 0 0 0.36897,1.721858 3.2793002,3.747618 0 0 0 -0.787549,2.432927 3.2793002,3.747618 0 0 0 1.154968,2.851505 3.859071,3.747618 0 0 0 -0.0078,0.202572 3.859071,3.747618 0 0 0 3.8591955,3.747575 3.859071,3.747618 0 0 0 2.499589,-0.89607 3.4915295,3.747618 0 0 0 1.2929443,0.266651 3.4915295,3.747618 0 0 0 3.4778239,-3.430282 3.2793002,3.747618 0 0 0 2.5776205,-3.659725 3.2793002,3.747618 0 0 0 -1.55287681,-3.185852 3.2793002,3.747618 0 0 0 -3.27886959,-3.7227699 3.2793002,3.747618 0 0 0 -0.234611,0.010335 3.8987057,3.747618 0 0 0 -3.4044434,-1.9223633 z" /><circle
       style="display:inline;fill:#ffffff;fill-opacity:0.955917;stroke-width:6.49999;stroke-linecap:round;stroke-linejoin:round"
       id="path4556"
       cx="-6.562057"
       cy="16.69714"
       r="1.9200493" /></g></svg>
