<?xml version="1.0" encoding="UTF-8" standalone="no"?>
<!-- Created with Inkscape (http://www.inkscape.org/) -->

<svg
   width="21.96298mm"
   height="24.112394mm"
   viewBox="0 0 21.96298 24.112394"
   version="1.1"
   id="svg4009"
   xml:space="preserve"
   inkscape:version="1.2.1 (0f2f062aeb, 2022-09-21, custom)"
   sodipodi:docname="regularExplosion02.svg"
   xmlns:inkscape="http://www.inkscape.org/namespaces/inkscape"
   xmlns:sodipodi="http://sodipodi.sourceforge.net/DTD/sodipodi-0.dtd"
   xmlns="http://www.w3.org/2000/svg"
   xmlns:svg="http://www.w3.org/2000/svg"><sodipodi:namedview
     id="namedview4011"
     pagecolor="#ffffff"
     bordercolor="#999999"
     borderopacity="1"
     inkscape:showpageshadow="0"
     inkscape:pageopacity="0"
     inkscape:pagecheckerboard="0"
     inkscape:deskcolor="#d1d1d1"
     inkscape:document-units="mm"
     showgrid="false"
     inkscape:zoom="4.0214615"
     inkscape:cx="46.376175"
     inkscape:cy="85.043709"
     inkscape:window-width="1920"
     inkscape:window-height="1043"
     inkscape:window-x="0"
     inkscape:window-y="0"
     inkscape:window-maximized="1"
     inkscape:current-layer="layer1" /><defs
     id="defs4006" /><g
     inkscape:label="Layer 1"
     inkscape:groupmode="layer"
     id="layer1"
     transform="translate(50.43262,-44.88741)"><g
       inkscape:label="Layer 1"
       id="layer1-2"
       transform="translate(179.59468,148.89932)"><path
         id="path332"
         style="display:inline;fill:#333333;fill-opacity:1;stroke:none;stroke-width:7.11222;stroke-linecap:round;stroke-linejoin:round"
         d="m -220.55036,-104.01174 a 4.9773655,4.126297 0 0 0 -4.57233,2.50114 4.9773655,5.4025607 0 0 0 -4.16306,5.327324 4.9773655,5.4025607 0 0 0 0.62115,2.608109 4.9773655,4.8448672 0 0 0 -1.3627,3.328479 4.9773655,4.8448672 0 0 0 1.69188,3.635437 5.7301536,5.8898635 0 0 0 -0.0579,0.822172 5.7301536,5.8898635 0 0 0 5.7304,5.889563 5.7301536,5.8898635 0 0 0 3.41942,-1.168921 5.5618353,4.3957472 0 0 0 1.81591,0.243396 5.5618353,4.3957472 0 0 0 5.56142,-4.395597 5.5618353,4.3957472 0 0 0 -0.0403,-0.52865 4.9773655,5.397944 0 0 0 3.84215,-5.25446 4.9773655,5.397944 0 0 0 -2.21227,-4.487581 5.6056123,5.8461947 0 0 0 0.008,-0.225826 5.6056123,5.8461947 0 0 0 -5.60535,-5.846675 5.6056123,5.8461947 0 0 0 -0.12712,0.005 4.9773655,4.126297 0 0 0 -4.54959,-2.45308 z" /><path
         id="path2877"
         style="display:inline;fill:#f0721e;fill-opacity:1;stroke:none;stroke-width:6.75299;stroke-linecap:round;stroke-linejoin:round"
         d="m -220.45321,-101.47753 c -1.5354,0.001 -2.96135,0.70909 -3.77135,1.87224 -1.06377,0.303413 -1.96037,1.046397 -2.56606,2.042828 -0.10041,0.16518 -1.94223,-0.672205 -2.02609,-0.493944 -0.0803,0.170617 1.59674,1.356366 1.53265,1.537446 -0.22303,0.630194 -0.34513,1.319252 -0.34546,2.035838 7.4e-4,0.591701 0.0855,1.179031 0.25063,1.737362 -0.52771,0.749079 -0.81125,1.643025 -0.81183,2.559534 4.2e-4,1.225229 0.50597,2.396003 1.39733,3.235978 -0.0665,0.280941 -0.10045,0.567163 -0.10129,0.854211 7e-5,2.328606 2.1316,4.216281 4.76095,4.21628 0.99706,-9.77e-4 1.96862,-0.279157 2.77761,-0.7953 0.46382,0.147412 0.951,0.223197 1.44177,0.224276 2.4063,-0.0017 4.37404,-1.76322 4.43901,-3.973918 1.85749,-0.597703 3.12305,-2.37501 3.12332,-4.386295 -1e-5,-1.520579 -0.72769,-2.942661 -1.94355,-3.798218 0.0859,-0.30697 0.12964,-0.62185 0.13023,-0.937927 -1.9e-4,-2.163868 -1.98009,-3.92754 -4.44779,-3.962033 -0.79602,-1.218738 -2.25846,-1.968358 -3.84008,-1.968358 z"
         sodipodi:nodetypes="ccssscccccccccccccc" /><path
         id="path3582"
         style="display:inline;fill:#ffcc00;fill-opacity:1;stroke:none;stroke-width:6.49999;stroke-linecap:round;stroke-linejoin:round"
         d="m -220.41239,-97.615747 c -0.90492,7.75e-4 -1.73299,0.520018 -2.14353,1.344104 -1.14771,0.143481 -2.03353,1.100457 -2.10995,2.279447 -0.67129,0.455693 -1.07494,1.22439 -1.07539,2.047937 5.1e-4,0.925759 0.50953,1.772857 1.31723,2.192115 0.0461,1.227866 0.97176,2.232673 2.16835,2.353861 0.29092,0.715878 0.8883,1.237421 1.59857,1.432507 0.2003,0.05502 0.0555,2.44411 0.26938,2.44424 0.12747,-5.2e-5 0.60761,-2.37044 0.73121,-2.39051 0.71804,-0.116573 1.35427,-0.56113 1.7184,-1.220104 0.30485,0.137232 0.63426,0.208322 0.96738,0.208773 1.3297,2.3e-5 2.40764,-1.101513 2.40761,-2.460315 -1.9e-4,-0.513452 -0.15757,-1.013977 -0.4501,-1.431438 0.52656,-0.466786 0.82929,-1.143879 0.82992,-1.856217 5e-5,-0.893896 -0.47436,-1.717491 -1.2392,-2.15129 0.0126,-0.100433 0.0192,-0.201567 0.0196,-0.302824 0,-0.16762 -0.0164,-0.331325 -0.0477,-0.489531 -0.055,-0.278678 3.17541,-4.040049 3.03666,-4.275934 -0.13724,-0.233324 -3.64287,3.058289 -3.8455,2.883694 -0.41897,-0.361004 -0.96019,-0.578554 -1.55112,-0.578544 -0.45163,7.5e-4 -0.89394,0.131294 -1.27641,0.376721 l -5.1e-4,-5.16e-4 c -0.39327,-0.26493 -0.85395,-0.406153 -1.32499,-0.406177 z"
         sodipodi:nodetypes="ccccccscscccccccsssccccc" /><path
         id="path3979"
         style="display:inline;fill:#ffffff;stroke-width:7.68442;stroke-linecap:round;stroke-linejoin:round"
         d="m -217.05631,-92.011192 c 0,0.293031 -0.0469,0.5754 -0.13377,0.840379 -0.0586,0.178656 2.94777,2.105541 2.85496,2.266326 -0.0994,0.172159 -3.30024,-1.423242 -3.43384,-1.276464 -0.51947,0.570733 -1.27802,0.930471 -2.12286,0.930471 -1.17528,-10e-7 -2.18356,-0.696181 -2.61353,-1.688092 -0.0691,-0.159408 -3.43955,0.679657 -3.47707,0.506636 -0.0401,-0.1849 3.2551,-1.382736 3.2551,-1.579256 0,-1.382001 1.04299,-2.526824 2.4044,-2.729009 0.14057,-0.02088 -0.009,-3.529608 0.13718,-3.529608 0.192,0 0.67345,3.516483 0.85474,3.551895 1.29739,0.253422 2.27469,1.36895 2.27469,2.706722 z"
         sodipodi:nodetypes="ssssssssssss" /></g></g></svg>
