<?xml version="1.0" encoding="UTF-8" standalone="no"?>
<!-- Created with Inkscape (http://www.inkscape.org/) -->

<svg
   width="35.438679mm"
   height="35.58424mm"
   viewBox="0 0 35.438679 35.58424"
   version="1.1"
   id="svg5"
   xml:space="preserve"
   inkscape:version="1.2.2 (b0a8486541, 2022-12-01, custom)"
   sodipodi:docname="regularExplosion05.svg"
   xmlns:inkscape="http://www.inkscape.org/namespaces/inkscape"
   xmlns:sodipodi="http://sodipodi.sourceforge.net/DTD/sodipodi-0.dtd"
   xmlns="http://www.w3.org/2000/svg"
   xmlns:svg="http://www.w3.org/2000/svg"><sodipodi:namedview
     id="namedview7"
     pagecolor="#ffffff"
     bordercolor="#999999"
     borderopacity="1"
     inkscape:showpageshadow="0"
     inkscape:pageopacity="0"
     inkscape:pagecheckerboard="0"
     inkscape:deskcolor="#d1d1d1"
     inkscape:document-units="mm"
     showgrid="false"
     inkscape:zoom="3.3638608"
     inkscape:cx="57.077273"
     inkscape:cy="51.726278"
     inkscape:window-width="1600"
     inkscape:window-height="863"
     inkscape:window-x="0"
     inkscape:window-y="0"
     inkscape:window-maximized="1"
     inkscape:current-layer="layer1" /><defs
     id="defs2" /><g
     inkscape:label="Layer 1"
     inkscape:groupmode="layer"
     id="layer1"
     transform="translate(25.119916,-0.4347128)"
     style="display:inline"><path
       id="path5368"
       style="display:inline;fill:#000000;fill-opacity:0.12;stroke-width:0.709999;stroke-linecap:round;stroke-linejoin:round"
       d="m -8.3413783,12.986636 c -0.7048651,-0.156593 -1.7577857,0.827747 -1.6820847,2.197091 -2.304738,1.198311 -2.010233,2.371541 -1.901467,3.118763 -0.81529,0.995664 -1.890009,3.807892 1.896,4.098362 0.2681259,0.233053 1.7314863,2.255443 3.8188671,0.276815 1.9805777,0.327633 4.4275431,-0.314596 3.5539814,-3.36073 C -1.1021676,16.65621 -2.551113,15.929145 -3.1049751,15.427449 -3.218793,13.946763 -3.5218733,12.298166 -6.3280437,12.699695 -7.224486,12.857066 -7.36375,13.07908 -9.1402979,12.81981 -12.371211,10.478383 -17.083486,10.205732 -17.145416,8.2929278 -15.264304,1.0867909 -9.921683,0.08423322 -6.0617133,0.95455907 0.12878091,-0.71944751 6.0173919,1.5365158 6.5244331,9.3712245 13.081489,14.481106 9.3891757,20.135307 8.2643359,21.70221 9.9727818,28.71297 6.0901308,33.196635 -1.725353,33.242151 c -6.6417259,5.230454 -11.24546,1.931523 -13.783129,-0.640123 -11.910593,-1.131789 -10.701431,-12.07915 -7.211232,-14.995365 -1.045865,-3.062211 1.334024,-8.0010632 5.484925,-9.3619476 2.94405,-1e-7 8.8934107,1.7241379 8.8934107,4.7419206 z"
       sodipodi:nodetypes="cccccccccccccccccc" /><path
       id="path6623"
       style="display:inline;fill:#ff6600;fill-opacity:0.4;stroke-width:0.709999;stroke-linecap:round;stroke-linejoin:round"
       d="m -11.582685,11.46802 c -3.759005,0.06528 -5.153404,4.640408 -4.816976,4.849454 -2.685626,0.663599 -4.481972,9.065011 1.902665,10.26468 -0.316441,1.042623 4.32799,5.493255 8.4687535,2.728076 2.5263035,1.609592 7.8767012,0.289471 8.3495661,-5.44045 2.6868836,-2.395727 2.644071,-5.685069 0.9553206,-8.091782 0.514348,-1.818027 -0.087701,-7.1583238 -6.2557845,-7.213794 -3.8928256,-1.8114007 -7.8164067,0.076355 -8.4997107,2.88196 -2.492144,0.343363 -1.317992,-1.8785546 -1.127088,-2.1616297 3.0860584,-5.4982751 6.876707,-5.1794033 10.646727,-3.5040886 4.9146513,-1.1715849 9.4435241,4.6793283 7.8410769,8.8174593 3.9226222,5.23827 -0.060276,9.65971 -1.1424291,10.29809 -0.090664,8.647345 -8.6740097,8.388057 -10.50514,7.081657 -5.1612278,2.353217 -9.3871308,-0.05014 -10.4804678,-3.299353 -9.299345,-3.582281 -5.327991,-12.295484 -2.609772,-13.419508 0.163808,-2.121053 1.90748,-5.8037389 6.223157,-5.9820038 1.053182,-10e-8 1.050102,1.5604638 1.050102,2.1912328 z"
       sodipodi:nodetypes="ccccccccccccccccc" /></g></svg>
