<?xml version="1.0" encoding="UTF-8" standalone="no"?>
<!-- Created with Inkscape (http://www.inkscape.org/) -->

<svg
   width="31.675518mm"
   height="25.695578mm"
   viewBox="0 0 31.675518 25.695578"
   version="1.1"
   id="svg50358"
   xml:space="preserve"
   inkscape:version="1.2.1 (0f2f062aeb, 2022-09-21, custom)"
   sodipodi:docname="meteorBrown_big2.svg"
   xmlns:inkscape="http://www.inkscape.org/namespaces/inkscape"
   xmlns:sodipodi="http://sodipodi.sourceforge.net/DTD/sodipodi-0.dtd"
   xmlns="http://www.w3.org/2000/svg"
   xmlns:svg="http://www.w3.org/2000/svg"><sodipodi:namedview
     id="namedview50360"
     pagecolor="#ffffff"
     bordercolor="#999999"
     borderopacity="1"
     inkscape:showpageshadow="0"
     inkscape:pageopacity="0"
     inkscape:pagecheckerboard="0"
     inkscape:deskcolor="#d1d1d1"
     inkscape:document-units="mm"
     showgrid="false"
     inkscape:zoom="2.3786088"
     inkscape:cx="66.425383"
     inkscape:cy="72.73159"
     inkscape:window-width="1920"
     inkscape:window-height="1043"
     inkscape:window-x="0"
     inkscape:window-y="0"
     inkscape:window-maximized="1"
     inkscape:current-layer="layer1" /><defs
     id="defs50355" /><g
     inkscape:label="Layer 1"
     inkscape:groupmode="layer"
     id="layer1"
     transform="translate(-89.111486,-94.203615)"><path
       style="display:inline;fill:#836049;fill-opacity:1;stroke:#604736;stroke-width:0.5;stroke-linecap:round;stroke-linejoin:round;stroke-dasharray:none;stroke-opacity:1"
       d="m 89.361485,105.66462 5.142966,-9.286888 12.030159,-1.924118 14.0024,4.600913 -3.44207,12.537883 -14.24334,3.9132 -4.648603,4.14359 -7.461617,-5.60919 z"
       id="path50561" /><path
       style="display:inline;fill:#997055;fill-opacity:1;stroke:#997055;stroke-width:0.365;stroke-linecap:round;stroke-linejoin:round;stroke-dasharray:none;stroke-opacity:1"
       d="m 95.933661,100.6003 4.101449,1.11853 -0.0271,-2.714706 6.38675,-0.720307 3.12641,1.076063 0.62612,1.57455 0.95788,-0.90345 5.31601,1.86383 -1.9818,7.2788 -3.16823,0.43005 -4.27351,-0.63297 -3.1188,1.69893 -1.5839,0.0199 -3.97978,3.64011 -4.973508,-2.18363 -0.298508,-2.21068 0.535969,-0.45134 -0.583763,-0.32349 -0.578007,-3.98652 z"
       id="path53410" /><path
       style="display:inline;fill:#836049;fill-opacity:1;stroke:#836049;stroke-width:0.265;stroke-linecap:round;stroke-linejoin:round;stroke-dasharray:none;stroke-opacity:1"
       d="m 99.798401,104.57667 1.843899,0.23152 -0.59441,1.1752 -1.43757,-0.0364 z"
       id="path53552"
       sodipodi:nodetypes="ccccc" /><path
       style="display:inline;fill:#836049;fill-opacity:1;stroke:#836049;stroke-width:0.264583px;stroke-linecap:round;stroke-linejoin:round;stroke-opacity:1"
       d="m 96.151405,104.35822 1.465656,-0.71123 0.995038,1.3525 -0.791279,1.81246 -1.114531,0.005 -0.856829,-0.83624 z"
       id="path53550"
       sodipodi:nodetypes="ccccccc" /></g></svg>
