<?xml version="1.0" encoding="UTF-8" standalone="no"?>
<!-- Created with Inkscape (http://www.inkscape.org/) -->

<svg
   width="24.190739mm"
   height="24.190739mm"
   viewBox="0 0 24.190739 24.190739"
   version="1.1"
   id="svg5"
   xml:space="preserve"
   sodipodi:docname="ufoYellow.svg"
   inkscape:export-filename="edj.svg"
   inkscape:export-xdpi="96"
   inkscape:export-ydpi="96"
   inkscape:version="1.2.1 (0f2f062aeb, 2022-09-21, custom)"
   xmlns:inkscape="http://www.inkscape.org/namespaces/inkscape"
   xmlns:sodipodi="http://sodipodi.sourceforge.net/DTD/sodipodi-0.dtd"
   xmlns="http://www.w3.org/2000/svg"
   xmlns:svg="http://www.w3.org/2000/svg"><sodipodi:namedview
     id="namedview7"
     pagecolor="#ffffff"
     bordercolor="#999999"
     borderopacity="1"
     inkscape:showpageshadow="0"
     inkscape:pageopacity="0"
     inkscape:pagecheckerboard="0"
     inkscape:deskcolor="#d1d1d1"
     inkscape:document-units="mm"
     showgrid="false"
     inkscape:zoom="6.7277216"
     inkscape:cx="40.355415"
     inkscape:cy="54.847692"
     inkscape:window-width="1920"
     inkscape:window-height="1043"
     inkscape:window-x="0"
     inkscape:window-y="0"
     inkscape:window-maximized="1"
     inkscape:current-layer="svg5"><inkscape:grid
       type="xygrid"
       id="grid48061" /></sodipodi:namedview><defs
     id="defs2"><inkscape:path-effect
       effect="skeletal"
       id="path-effect48763"
       is_visible="true"
       lpeversion="1"
       pattern="#path9218-5"
       copytype="repeated"
       prop_scale="1"
       scale_y_rel="false"
       spacing="4.4"
       normal_offset="0"
       tang_offset="2.3"
       prop_units="false"
       vertical_pattern="false"
       hide_knot="false"
       fuse_tolerance="0" /><inkscape:path-effect
       effect="skeletal"
       id="path-effect47341"
       is_visible="true"
       lpeversion="1"
       pattern="#path9218-5"
       copytype="repeated"
       prop_scale="1"
       scale_y_rel="false"
       spacing="4.4"
       normal_offset="0"
       tang_offset="2.3"
       prop_units="false"
       vertical_pattern="false"
       hide_knot="false"
       fuse_tolerance="0" /><inkscape:path-effect
       effect="skeletal"
       id="path-effect44905"
       is_visible="true"
       lpeversion="1"
       pattern="#path9218-5"
       copytype="repeated"
       prop_scale="1"
       scale_y_rel="false"
       spacing="5.6"
       normal_offset="-0.2"
       tang_offset="5.1"
       prop_units="false"
       vertical_pattern="false"
       hide_knot="false"
       fuse_tolerance="0" /><inkscape:path-effect
       effect="skeletal"
       id="path-effect44790"
       is_visible="true"
       lpeversion="1"
       pattern="M 0,0 H 1"
       copytype="single_stretched"
       prop_scale="1"
       scale_y_rel="false"
       spacing="0"
       normal_offset="0"
       tang_offset="0"
       prop_units="false"
       vertical_pattern="false"
       hide_knot="false"
       fuse_tolerance="0" /><inkscape:path-effect
       effect="skeletal"
       id="path-effect34434"
       is_visible="true"
       lpeversion="1"
       pattern="#path9218-5"
       copytype="repeated"
       prop_scale="1"
       scale_y_rel="false"
       spacing="7.5"
       normal_offset="0"
       tang_offset="4.1"
       prop_units="false"
       vertical_pattern="false"
       hide_knot="false"
       fuse_tolerance="0" /><marker
       markerWidth="1.001"
       markerHeight="1.001"
       refX="2"
       refY="2"
       orient="auto"
       id="marker11033"
       viewBox="0 0 4.5167799 4.5167799"
       preserveAspectRatio="xMidYMid"><circle
         style="fill:#9ebbc7;fill-opacity:1;stroke:none;stroke-width:0;stroke-linecap:round;stroke-linejoin:miter;stroke-dasharray:none;stroke-opacity:1"
         id="path9218"
         cx="2.2583899"
         cy="2.2583899"
         r="2.2583899" /></marker><marker
       markerWidth="1"
       markerHeight="1"
       refX="2.2583899"
       refY="2.2583899"
       orient="auto"
       id="marker22923"
       viewBox="0 0 4.5167799 4.5167799"
       preserveAspectRatio="xMidYMid"><circle
         style="display:inline;fill:#eff4f5;fill-opacity:1;stroke:none;stroke-width:0;stroke-linecap:round;stroke-linejoin:miter;stroke-dasharray:none;stroke-opacity:1"
         id="path9218-3"
         cx="2.2583899"
         cy="2.2583899"
         r="2.2583899" /></marker></defs><g
     inkscape:label="Layer 1"
     inkscape:groupmode="layer"
     id="layer1"
     style="display:inline"
     transform="translate(-68.285123,-62.875936)"><circle
       style="display:inline;fill:#d3e1e7;fill-opacity:1;stroke:#9ebbc7;stroke-width:0.556441;stroke-linecap:round;stroke-linejoin:round;stroke-dasharray:none;stroke-opacity:1"
       id="path1278"
       cx="80.380493"
       cy="74.971306"
       r="11.817149" /><circle
       style="display:inline;fill:#4a3c55;fill-opacity:1;stroke:#4a3c55;stroke-width:0.290969;stroke-linecap:round;stroke-linejoin:round;stroke-dasharray:none;stroke-opacity:1"
       id="path1280"
       cx="80.380493"
       cy="74.971306"
       r="4.7384872" /><ellipse
       style="display:inline;fill:#594a68;fill-opacity:1;stroke:#594a68;stroke-width:0.232262;stroke-linecap:round;stroke-linejoin:round;stroke-dasharray:none;stroke-opacity:1"
       id="path2438"
       cx="82.497162"
       cy="73.078262"
       rx="1.0650175"
       ry="1.0913186" /><ellipse
       style="display:inline;fill:none;fill-opacity:1;stroke:#e7b900;stroke-width:2.242;stroke-linecap:round;stroke-linejoin:miter;stroke-dasharray:none;stroke-opacity:1"
       id="path6022"
       ry="6.8427119"
       rx="6.9061232"
       cy="74.971306"
       cx="80.380493" /><path
       style="display:inline;fill:#9ebbc7;fill-opacity:1;stroke:none;stroke-width:1;stroke-linecap:butt;stroke-linejoin:round;stroke-dasharray:none;stroke-opacity:1;paint-order:stroke fill markers"
       id="path47339"
       inkscape:path-effect="#path-effect47341"
       sodipodi:type="arc"
       sodipodi:cx="80.775391"
       sodipodi:cy="73.260963"
       sodipodi:rx="4.7947083"
       sodipodi:ry="4.7947083"
       d="m 84.680157,75.930829 c -0.130935,-0.09317 -0.163022,-0.271653 -0.08414,-0.396523 0.07883,-0.124784 0.253553,-0.172558 0.393621,-0.09526 0.140103,0.07731 0.190693,0.257917 0.09841,0.404988 -0.09223,0.146987 -0.276989,0.179942 -0.40789,0.0868 z m -4.242066,2.111158 c 0.01292,-0.159445 0.148833,-0.279421 0.294319,-0.278833 0.01439,5.8e-5 0.02875,0.0013 0.04298,0.0036 0,0 0,0 0,0 0.128968,0.02316 0.237138,0.139576 0.245526,0.281654 0.0084,0.142548 -0.09067,0.271986 -0.245526,0.296169 0,0 0,0 0,0 -0.01637,0.0023 -0.03293,0.0034 -0.0495,0.0031 -0.177432,-0.0031 -0.300709,-0.146273 -0.287796,-0.305686 z M 76.517547,75.35829 c 0.141393,-0.07466 0.315109,-0.02372 0.391597,0.10234 0.07654,0.126154 0.04131,0.303945 -0.09121,0.394729 -0.132487,0.09076 -0.316553,0.05452 -0.406096,-0.0941 -0.0896,-0.148712 -0.03572,-0.328286 0.105713,-0.402965 z m 0.292011,-4.679463 c 0.132777,0.0904 0.16852,0.268068 0.09236,0.394426 -0.07611,0.126261 -0.249654,0.17771 -0.391258,0.103481 -0.141642,-0.07425 -0.196051,-0.253652 -0.106891,-0.402625 0.08911,-0.148882 0.273054,-0.185654 0.405793,-0.09528 z m 4.19653,-2.206163 c -0.0076,0.13647 -0.107693,0.250546 -0.230697,0.279713 0,0 0,0 0,0 0,0 0,0 0,0 -0.01872,0.0042 -0.03775,0.0063 -0.05684,0.0065 -0.145453,0.0011 -0.281765,-0.118321 -0.295238,-0.277692 -0.01347,-0.159339 0.109274,-0.302912 0.286617,-0.306605 0.02199,-4.58e-4 0.04395,0.0014 0.06546,0.0056 0,0 0,0 0,0 0,0 0,0 0,0 0.146868,0.03032 0.238299,0.155518 0.230697,0.292531 z m 3.976377,2.597267 c -0.13985,0.07772 -0.314731,0.03045 -0.393933,-0.09412 -0.07926,-0.12466 -0.04768,-0.303253 0.083,-0.396799 0.130642,-0.09352 0.315502,-0.0611 0.408166,0.08562 0.09271,0.146803 0.04266,0.327565 -0.09723,0.4053 z"
       class="UnoptimicedTransforms"
       transform="matrix(2.0421978,0,0,2.0421978,-84.521988,-74.642363)" /><path
       style="display:inline;fill:#eff4f5;fill-opacity:1;stroke:none;stroke-width:1;stroke-linecap:butt;stroke-linejoin:round;stroke-dasharray:none;stroke-opacity:1;paint-order:stroke fill markers"
       id="path48759"
       inkscape:path-effect="#path-effect48763"
       sodipodi:type="arc"
       sodipodi:cx="80.775391"
       sodipodi:cy="73.260963"
       sodipodi:rx="4.7947083"
       sodipodi:ry="4.7947083"
       d="m 84.821852,75.982443 c -0.161752,-0.01216 -0.275264,-0.159358 -0.26833,-0.311557 0.0069,-0.152266 0.131877,-0.269186 0.290659,-0.268985 0.158528,2e-4 0.295091,0.122032 0.290125,0.291073 -0.005,0.169089 -0.15045,0.301646 -0.312454,0.289469 z m -4.35532,2.207567 c -0.073,-0.145064 -0.0036,-0.317308 0.128426,-0.390873 0.05587,-0.03113 0.118865,-0.04252 0.180433,-0.03238 0.0803,0.01442 0.153435,0.06465 0.199337,0.138291 0.08392,0.134634 0.05532,0.315776 -0.09335,0.402166 -0.03228,0.01876 -0.06828,0.03148 -0.105991,0.03737 -0.12967,0.01857 -0.254028,-0.04562 -0.308859,-0.154573 z m -4.058459,-2.728677 c 0.0833,-0.138586 0.265194,-0.173557 0.397916,-0.09955 0.13282,0.07406 0.18226,0.237784 0.110659,0.380036 -0.07144,0.141935 -0.242321,0.209261 -0.390903,0.12878 -0.148656,-0.08052 -0.201159,-0.270377 -0.117672,-0.409266 z m 0.258821,-4.831148 c 0.161899,0.0088 0.278355,0.153567 0.274609,0.305747 -0.0037,0.152245 -0.126077,0.271631 -0.284716,0.274805 -0.158391,0.0032 -0.297477,-0.115597 -0.296077,-0.28467 0.0014,-0.169119 0.144038,-0.304681 0.306184,-0.295882 z m 4.306933,-2.305047 c 0.07683,0.143429 0.01165,0.317655 -0.118609,0.394839 -0.02512,0.01489 -0.05201,0.0258 -0.07983,0.0324 -0.113831,0.02532 -0.23369,-0.02525 -0.302343,-0.129331 -0.08721,-0.132213 -0.06315,-0.313736 0.08286,-0.403609 0.06445,-0.03967 0.143531,-0.05401 0.219479,-0.0393 0.08702,0.01797 0.159055,0.07148 0.198436,0.145005 z m 4.115951,2.639376 c -0.08038,0.1404 -0.261567,0.179319 -0.395947,0.108047 -0.134477,-0.07132 -0.187362,-0.234148 -0.118694,-0.377933 0.06852,-0.143468 0.238056,-0.214315 0.388339,-0.136949 0.150356,0.0774 0.206859,0.26613 0.126302,0.406835 z"
       class="UnoptimicedTransforms"
       transform="matrix(1.7685952,1.0210989,-1.0210989,1.7685952,12.331398,-137.02891)" /><path
       style="display:inline;fill:none;fill-opacity:1;stroke:#ffcc00;stroke-width:2.242;stroke-linecap:butt;stroke-linejoin:miter;stroke-dasharray:none;stroke-opacity:1"
       id="ellipse49650"
       sodipodi:type="arc"
       sodipodi:cx="80.380493"
       sodipodi:cy="74.971306"
       sodipodi:rx="6.9061232"
       sodipodi:ry="6.8427119"
       sodipodi:start="4.712389"
       sodipodi:end="5.4977871"
       sodipodi:open="true"
       sodipodi:arc-type="arc"
       d="m 80.380493,68.128594 a 6.9061232,6.8427119 0 0 1 4.883366,2.004184" /><path
       style="display:inline;fill:none;fill-opacity:1;stroke:#ffcc00;stroke-width:2.242;stroke-linecap:butt;stroke-linejoin:miter;stroke-dasharray:none;stroke-opacity:1"
       id="path50273"
       sodipodi:type="arc"
       sodipodi:cx="80.380493"
       sodipodi:cy="74.971306"
       sodipodi:rx="6.9061232"
       sodipodi:ry="6.8427119"
       sodipodi:start="3.1415927"
       sodipodi:end="3.9269908"
       sodipodi:open="true"
       sodipodi:arc-type="arc"
       d="m 73.47437,74.971306 a 6.9061232,6.8427119 0 0 1 2.022757,-4.838528" /><path
       style="display:inline;fill:none;fill-opacity:1;stroke:#ffcc00;stroke-width:2.242;stroke-linecap:butt;stroke-linejoin:miter;stroke-dasharray:none;stroke-opacity:1"
       id="path50275"
       sodipodi:type="arc"
       sodipodi:cx="80.380493"
       sodipodi:cy="74.971306"
       sodipodi:rx="6.9061232"
       sodipodi:ry="6.8427119"
       sodipodi:start="1.5707963"
       sodipodi:end="2.3561945"
       sodipodi:open="true"
       sodipodi:arc-type="arc"
       d="M 80.380493,81.814018 A 6.9061232,6.8427119 0 0 1 75.497127,79.809834" /><path
       style="display:inline;fill:none;fill-opacity:1;stroke:#ffcc00;stroke-width:2.242;stroke-linecap:butt;stroke-linejoin:miter;stroke-dasharray:none;stroke-opacity:1"
       id="path50277"
       sodipodi:type="arc"
       sodipodi:cx="80.380493"
       sodipodi:cy="74.971306"
       sodipodi:rx="6.9061232"
       sodipodi:ry="6.8427119"
       sodipodi:start="0"
       sodipodi:end="0.78539816"
       sodipodi:arc-type="arc"
       d="M 87.286616,74.971306 A 6.9061232,6.8427119 0 0 1 85.26386,79.809834"
       sodipodi:open="true" /></g><circle
     style="display:none;fill:#9ebbc7;fill-opacity:1;stroke:none;stroke-width:0;stroke-linecap:round;stroke-linejoin:miter;stroke-dasharray:none;stroke-opacity:1"
     id="path9218-5"
     cx="22.921535"
     cy="2.243041"
     r="0.59753233"
     class="UnoptimicedTransforms" /></svg>
